M48
; DRILL file {KiCad 9.0.6} date 2026-01-27T06:42:34-0600
; FORMAT={-:-/ absolute / metric / decimal}
; #@! TF.CreationDate,2026-01-27T06:42:34-06:00
; #@! TF.GenerationSoftware,Kicad,Pcbnew,9.0.6
; #@! TF.FileFunction,Plated,1,2,PTH
FMAT,2
METRIC
; #@! TA.AperFunction,Plated,PTH,ViaDrill
T1C0.300
; #@! TA.AperFunction,Plated,PTH,ComponentDrill
T2C0.750
; #@! TA.AperFunction,Plated,PTH,ComponentDrill
T3C0.800
; #@! TA.AperFunction,Plated,PTH,ComponentDrill
T4C0.900
; #@! TA.AperFunction,Plated,PTH,ComponentDrill
T5C0.950
; #@! TA.AperFunction,Plated,PTH,ComponentDrill
T6C1.000
; #@! TA.AperFunction,Plated,PTH,ComponentDrill
T7C1.100
; #@! TA.AperFunction,Plated,PTH,ComponentDrill
T8C1.200
; #@! TA.AperFunction,Plated,PTH,ComponentDrill
T9C1.500
; #@! TA.AperFunction,Plated,PTH,ComponentDrill
T10C1.600
; #@! TA.AperFunction,Plated,PTH,ComponentDrill
T11C1.800
%
G90
G05
T1
X78.0Y-41.5
X80.25Y-47.5
X80.25Y-49.75
X87.75Y-68.75
X88.9Y-61.85
X89.25Y-68.75
X90.0Y-66.206
X91.24Y-62.49
X91.25Y-67.0
X92.5Y-63.75
X113.0Y-69.5
X115.705Y-55.075
X116.258Y-52.954
X117.0Y-52.25
X117.625Y-67.875
X118.75Y-66.75
X123.0Y-57.75
X123.5Y-51.75
X123.5Y-57.0
X125.25Y-57.75
X125.8Y-57.05
X125.875Y-75.125
X132.75Y-59.25
X133.5Y-61.0
X134.75Y-56.25
X137.75Y-58.5
X138.0Y-49.75
X138.75Y-40.25
X139.0Y-68.0
X140.0Y-40.25
X141.5Y-68.0
X143.25Y-48.0
X143.25Y-53.0
X144.375Y-71.875
X148.0Y-37.0
X148.25Y-43.0
X148.5Y-49.5
X149.5Y-40.0
X149.5Y-46.2
X149.654Y-52.654
X150.0Y-48.75
X150.074Y-51.855
X150.75Y-42.75
X151.0Y-84.0
X151.125Y-44.625
X152.177Y-46.927
X152.25Y-36.75
X152.25Y-38.3
X152.25Y-48.3
X152.25Y-51.25
X152.25Y-53.3
X153.5Y-58.5
X154.0Y-84.0
X157.0Y-57.0
X160.25Y-62.5
T2
X140.0Y-85.96
X140.0Y-87.23
X140.0Y-88.5
T3
X57.84Y-53.0
X64.84Y-37.0
X68.0Y-53.0
X68.25Y-78.25
X68.25Y-83.25
X70.0Y-34.0
X70.5Y-53.0
X71.5Y-71.5
X71.5Y-74.0
X75.0Y-34.0
X75.0Y-37.0
X75.0Y-39.92
X75.0Y-50.08
X75.0Y-57.0
X75.0Y-67.16
X75.5Y-53.0
X77.75Y-72.92
X77.75Y-83.08
X78.25Y-48.5
X78.25Y-53.5
X81.0Y-35.0
X81.0Y-37.5
X87.0Y-39.63
X87.0Y-42.17
X87.0Y-44.71
X87.0Y-47.25
X87.0Y-49.79
X87.0Y-52.33
X87.0Y-54.87
X87.0Y-57.41
X87.0Y-59.95
X87.0Y-62.49
X87.0Y-65.03
X87.0Y-67.57
X87.0Y-70.11
X87.0Y-72.65
X87.0Y-75.19
X87.0Y-77.73
X109.86Y-39.63
X109.86Y-42.17
X109.86Y-44.71
X109.86Y-47.25
X109.86Y-49.79
X109.86Y-52.33
X109.86Y-54.87
X109.86Y-57.41
X109.86Y-59.95
X109.86Y-62.49
X109.86Y-65.03
X109.86Y-67.57
X109.86Y-70.11
X109.86Y-72.65
X109.86Y-75.19
X109.86Y-77.73
X116.0Y-84.5
X116.0Y-87.0
X118.5Y-75.5
X118.5Y-80.5
X121.0Y-32.92
X121.0Y-43.08
X124.0Y-33.0
X124.0Y-43.16
X127.0Y-34.0
X127.0Y-38.0
X127.0Y-42.0
X132.0Y-42.0
X135.5Y-78.92
X135.5Y-89.08
X137.16Y-34.0
X137.16Y-38.0
X138.42Y-82.5
X139.34Y-38.5
X139.34Y-41.5
X139.34Y-44.5
X139.34Y-47.5
X143.38Y-88.5
X144.5Y-35.5
X144.5Y-50.5
X148.58Y-82.5
X149.5Y-35.5
X149.5Y-38.5
X149.5Y-41.5
X149.5Y-44.5
X149.5Y-47.5
X149.5Y-50.5
X151.0Y-88.5
X160.0Y-35.76
X160.0Y-38.3
X160.0Y-40.84
X160.0Y-43.38
X160.0Y-45.92
X160.0Y-48.46
X160.0Y-51.0
X160.0Y-53.54
X160.0Y-56.08
X167.62Y-35.76
X167.62Y-38.3
X167.62Y-40.84
X167.62Y-43.38
X167.62Y-45.92
X167.62Y-48.46
X167.62Y-51.0
X167.62Y-53.54
X167.62Y-56.08
T4
X71.71Y-80.75
X74.25Y-80.75
T5
X116.0Y-37.0
X116.0Y-39.5
X116.0Y-42.0
X116.0Y-44.5
X141.5Y-57.475
X141.5Y-66.0
X141.5Y-74.0
X144.0Y-57.475
X144.0Y-66.0
X144.0Y-74.0
X146.5Y-57.475
X146.5Y-66.0
X146.5Y-74.0
X153.0Y-70.5
X155.5Y-70.5
X155.525Y-35.8
X155.525Y-38.3
X155.525Y-40.8
X155.525Y-43.3
X155.525Y-45.8
X155.525Y-48.3
X155.525Y-50.8
X155.525Y-53.3
X155.525Y-55.8
X155.525Y-58.3
X155.525Y-60.8
X155.525Y-63.3
X158.0Y-70.5
X173.5Y-42.34
X173.5Y-44.84
X173.5Y-47.34
X173.5Y-49.84
X173.5Y-52.34
X173.5Y-54.84
X173.5Y-57.34
X173.5Y-59.84
X173.5Y-62.34
X173.5Y-64.84
X173.5Y-67.34
X173.5Y-69.84
T6
X83.322Y-43.115
X83.322Y-45.655
X83.322Y-48.195
X83.322Y-50.735
X83.322Y-53.276
X83.322Y-55.816
X83.322Y-58.355
X83.322Y-60.895
X83.322Y-63.435
X83.322Y-65.975
X83.322Y-68.516
X94.0Y-37.0
X96.54Y-37.0
X99.08Y-37.0
X101.62Y-37.0
X113.36Y-49.79
X113.36Y-52.33
X113.36Y-54.87
X113.36Y-57.41
X113.36Y-59.95
X113.36Y-62.49
X113.36Y-65.03
X122.0Y-50.5
X122.0Y-55.5
X129.46Y-76.0
X132.0Y-76.0
X136.5Y-50.5
X136.5Y-53.0
X136.5Y-55.5
X153.0Y-82.0
X161.04Y-60.0
X163.0Y-82.0
X163.58Y-60.0
X166.12Y-60.0
X167.0Y-63.92
X167.0Y-66.46
X167.0Y-69.0
X167.0Y-75.0
X167.5Y-82.75
X167.5Y-85.29
X167.5Y-87.83
X168.21Y-79.0
X169.54Y-75.0
X170.75Y-79.0
X172.08Y-75.0
X173.29Y-79.0
T7
X70.1Y-87.95
X71.8Y-87.95
X73.5Y-87.95
X75.2Y-87.95
X76.9Y-87.95
T8
X58.75Y-42.5
X58.75Y-47.5
X58.75Y-59.5
X58.75Y-64.5
X71.25Y-42.5
X71.25Y-47.5
X71.25Y-59.5
X71.25Y-64.5
X129.0Y-67.0
X134.0Y-67.0
T10
X82.5Y-72.25
X82.5Y-87.49
T11
X59.0Y-75.75
X64.58Y-75.75
T6
G00X125.0Y-80.0
M15
G01X127.0Y-80.0
M16
G05
G00X125.0Y-86.0
M15
G01X127.0Y-86.0
M16
G05
G00X130.7Y-84.0
M15
G01X130.7Y-82.0
M16
G05
T9
G00X129.65Y-47.4
M15
G01X128.35Y-47.4
M16
G05
G00X129.65Y-58.6
M15
G01X128.35Y-58.6
M16
G05
M30
