%TF.GenerationSoftware,KiCad,Pcbnew,9.0.6*%
%TF.CreationDate,2026-01-27T06:42:28-06:00*%
%TF.ProjectId,papa-project-board,70617061-2d70-4726-9f6a-6563742d626f,1.0*%
%TF.SameCoordinates,Original*%
%TF.FileFunction,Copper,L1,Top*%
%TF.FilePolarity,Positive*%
%FSLAX46Y46*%
G04 Gerber Fmt 4.6, Leading zero omitted, Abs format (unit mm)*
G04 Created by KiCad (PCBNEW 9.0.6) date 2026-01-27 06:42:28*
%MOMM*%
%LPD*%
G01*
G04 APERTURE LIST*
G04 Aperture macros list*
%AMRoundRect*
0 Rectangle with rounded corners*
0 $1 Rounding radius*
0 $2 $3 $4 $5 $6 $7 $8 $9 X,Y pos of 4 corners*
0 Add a 4 corners polygon primitive as box body*
4,1,4,$2,$3,$4,$5,$6,$7,$8,$9,$2,$3,0*
0 Add four circle primitives for the rounded corners*
1,1,$1+$1,$2,$3*
1,1,$1+$1,$4,$5*
1,1,$1+$1,$6,$7*
1,1,$1+$1,$8,$9*
0 Add four rect primitives between the rounded corners*
20,1,$1+$1,$2,$3,$4,$5,0*
20,1,$1+$1,$4,$5,$6,$7,0*
20,1,$1+$1,$6,$7,$8,$9,0*
20,1,$1+$1,$8,$9,$2,$3,0*%
G04 Aperture macros list end*
%TA.AperFunction,ComponentPad*%
%ADD10C,1.600000*%
%TD*%
%TA.AperFunction,ComponentPad*%
%ADD11C,1.700000*%
%TD*%
%TA.AperFunction,ComponentPad*%
%ADD12R,1.700000X1.700000*%
%TD*%
%TA.AperFunction,ComponentPad*%
%ADD13C,1.800000*%
%TD*%
%TA.AperFunction,ComponentPad*%
%ADD14R,1.800000X1.800000*%
%TD*%
%TA.AperFunction,ComponentPad*%
%ADD15C,3.600000*%
%TD*%
%TA.AperFunction,ComponentPad*%
%ADD16RoundRect,0.250000X0.550000X0.550000X-0.550000X0.550000X-0.550000X-0.550000X0.550000X-0.550000X0*%
%TD*%
%TA.AperFunction,ComponentPad*%
%ADD17O,3.000000X2.500000*%
%TD*%
%TA.AperFunction,ComponentPad*%
%ADD18C,2.000000*%
%TD*%
%TA.AperFunction,ComponentPad*%
%ADD19R,3.200000X2.000000*%
%TD*%
%TA.AperFunction,ComponentPad*%
%ADD20R,2.000000X2.000000*%
%TD*%
%TA.AperFunction,ComponentPad*%
%ADD21O,2.000000X1.200000*%
%TD*%
%TA.AperFunction,ComponentPad*%
%ADD22R,2.000000X1.200000*%
%TD*%
%TA.AperFunction,ComponentPad*%
%ADD23O,1.950000X1.700000*%
%TD*%
%TA.AperFunction,ComponentPad*%
%ADD24RoundRect,0.250000X-0.725000X0.600000X-0.725000X-0.600000X0.725000X-0.600000X0.725000X0.600000X0*%
%TD*%
%TA.AperFunction,ComponentPad*%
%ADD25RoundRect,0.250000X0.550000X-0.550000X0.550000X0.550000X-0.550000X0.550000X-0.550000X-0.550000X0*%
%TD*%
%TA.AperFunction,ComponentPad*%
%ADD26O,1.700000X1.950000*%
%TD*%
%TA.AperFunction,ComponentPad*%
%ADD27RoundRect,0.250000X-0.600000X-0.725000X0.600000X-0.725000X0.600000X0.725000X-0.600000X0.725000X0*%
%TD*%
%TA.AperFunction,ComponentPad*%
%ADD28C,2.400000*%
%TD*%
%TA.AperFunction,ComponentPad*%
%ADD29RoundRect,0.250001X0.949999X0.949999X-0.949999X0.949999X-0.949999X-0.949999X0.949999X-0.949999X0*%
%TD*%
%TA.AperFunction,ComponentPad*%
%ADD30C,3.200000*%
%TD*%
%TA.AperFunction,ComponentPad*%
%ADD31RoundRect,0.250000X-1.350000X1.350000X-1.350000X-1.350000X1.350000X-1.350000X1.350000X1.350000X0*%
%TD*%
%TA.AperFunction,ComponentPad*%
%ADD32RoundRect,0.250000X-0.550000X0.550000X-0.550000X-0.550000X0.550000X-0.550000X0.550000X0.550000X0*%
%TD*%
%TA.AperFunction,ComponentPad*%
%ADD33RoundRect,0.250000X-0.550000X-0.550000X0.550000X-0.550000X0.550000X0.550000X-0.550000X0.550000X0*%
%TD*%
%TA.AperFunction,ComponentPad*%
%ADD34O,1.500000X1.050000*%
%TD*%
%TA.AperFunction,ComponentPad*%
%ADD35R,1.500000X1.050000*%
%TD*%
%TA.AperFunction,ComponentPad*%
%ADD36R,1.500000X1.800000*%
%TD*%
%TA.AperFunction,ComponentPad*%
%ADD37RoundRect,0.875000X0.875000X-0.875000X0.875000X0.875000X-0.875000X0.875000X-0.875000X-0.875000X0*%
%TD*%
%TA.AperFunction,ComponentPad*%
%ADD38RoundRect,0.750000X1.000000X-0.750000X1.000000X0.750000X-1.000000X0.750000X-1.000000X-0.750000X0*%
%TD*%
%TA.AperFunction,ComponentPad*%
%ADD39R,3.500000X3.500000*%
%TD*%
%TA.AperFunction,ViaPad*%
%ADD40C,0.600000*%
%TD*%
%TA.AperFunction,Conductor*%
%ADD41C,0.250000*%
%TD*%
%TA.AperFunction,Conductor*%
%ADD42C,1.100000*%
%TD*%
%TA.AperFunction,Conductor*%
%ADD43C,0.600000*%
%TD*%
%TA.AperFunction,Conductor*%
%ADD44C,1.500000*%
%TD*%
G04 APERTURE END LIST*
D10*
%TO.P,C3,2*%
%TO.N,GND*%
X68250000Y-78250000D03*
%TO.P,C3,1*%
%TO.N,+5V*%
X68250000Y-83250000D03*
%TD*%
D11*
%TO.P,J15,3,Pin_3*%
%TO.N,GND*%
X167500000Y-82750000D03*
%TO.P,J15,2,Pin_2*%
X167500000Y-85290000D03*
D12*
%TO.P,J15,1,Pin_1*%
X167500000Y-87830000D03*
%TD*%
D10*
%TO.P,R5,2*%
%TO.N,Net-(D3-A)*%
X77750000Y-72920000D03*
%TO.P,R5,1*%
%TO.N,+5V*%
X77750000Y-83080000D03*
%TD*%
%TO.P,C7,2*%
%TO.N,GND*%
X132000000Y-42000000D03*
%TO.P,C7,1*%
%TO.N,IO9*%
X127000000Y-42000000D03*
%TD*%
D13*
%TO.P,D3,2,A*%
%TO.N,Net-(D3-A)*%
X71710000Y-80750000D03*
D14*
%TO.P,D3,1,K*%
%TO.N,GND*%
X74250000Y-80750000D03*
%TD*%
D10*
%TO.P,C12,2*%
%TO.N,GND*%
X78250000Y-53500000D03*
%TO.P,C12,1*%
%TO.N,IO4*%
X78250000Y-48500000D03*
%TD*%
D11*
%TO.P,J6,7,Pin_7*%
%TO.N,IO9*%
X113360000Y-65030000D03*
%TO.P,J6,6,Pin_6*%
%TO.N,IO18*%
X113360000Y-62490000D03*
%TO.P,J6,5,Pin_5*%
%TO.N,IO19*%
X113360000Y-59950000D03*
%TO.P,J6,4,Pin_4*%
%TO.N,IO20*%
X113360000Y-57410000D03*
%TO.P,J6,3,Pin_3*%
%TO.N,IO21*%
X113360000Y-54870000D03*
%TO.P,J6,2,Pin_2*%
%TO.N,IO22*%
X113360000Y-52330000D03*
D12*
%TO.P,J6,1,Pin_1*%
%TO.N,IO23*%
X113360000Y-49790000D03*
%TD*%
D15*
%TO.P,L1,2,2*%
%TO.N,+5V*%
X64580000Y-75750000D03*
%TO.P,L1,1,1*%
%TO.N,Net-(D2-K)*%
X59000000Y-75750000D03*
%TD*%
D10*
%TO.P,D1,2,A*%
%TO.N,SPKR*%
X143380000Y-88500000D03*
D16*
%TO.P,D1,1,K*%
%TO.N,+5V*%
X151000000Y-88500000D03*
%TD*%
D11*
%TO.P,J4,2,Pin_2*%
%TO.N,Net-(J4-Pin_2)*%
X129460000Y-76000000D03*
D12*
%TO.P,J4,1,Pin_1*%
%TO.N,VIN*%
X132000000Y-76000000D03*
%TD*%
D17*
%TO.P,SW3,2,2*%
%TO.N,Net-(R14-Pad2)*%
X58750000Y-47500000D03*
X71250000Y-47500000D03*
%TO.P,SW3,1,1*%
%TO.N,GND*%
X58750000Y-42500000D03*
X71250000Y-42500000D03*
%TD*%
D10*
%TO.P,R6,2*%
%TO.N,Net-(R13-Pad2)*%
X68000000Y-53000000D03*
%TO.P,R6,1*%
%TO.N,+3.3V*%
X57840000Y-53000000D03*
%TD*%
D18*
%TO.P,SW1,S2,S2*%
%TO.N,GND*%
X122000000Y-50500000D03*
%TO.P,SW1,S1,S1*%
%TO.N,Net-(R7-Pad2)*%
X122000000Y-55500000D03*
D19*
%TO.P,SW1,MP*%
%TO.N,N/C*%
X129000000Y-47400000D03*
X129000000Y-58600000D03*
D18*
%TO.P,SW1,C,C*%
%TO.N,GND*%
X136500000Y-53000000D03*
%TO.P,SW1,B,B*%
%TO.N,Net-(R10-Pad1)*%
X136500000Y-55500000D03*
D20*
%TO.P,SW1,A,A*%
%TO.N,Net-(R11-Pad2)*%
X136500000Y-50500000D03*
%TD*%
D21*
%TO.P,U1,32,GND*%
%TO.N,GND*%
X109860000Y-39630000D03*
%TO.P,U1,31,GPIO16/U0TXD*%
%TO.N,unconnected-(U1-GPIO16{slash}U0TXD-Pad31)*%
X109860000Y-42170000D03*
%TO.P,U1,30,GPIO17/U0RXD*%
%TO.N,unconnected-(U1-GPIO17{slash}U0RXD-Pad30)*%
X109860000Y-44710000D03*
%TO.P,U1,29,GPIO15/JTAG*%
%TO.N,unconnected-(U1-GPIO15{slash}JTAG-Pad29)*%
X109860000Y-47250000D03*
%TO.P,U1,28,GPIO23*%
%TO.N,IO23*%
X109860000Y-49790000D03*
%TO.P,U1,27,GPIO22*%
%TO.N,IO22*%
X109860000Y-52330000D03*
%TO.P,U1,26,GPIO21*%
%TO.N,IO21*%
X109860000Y-54870000D03*
%TO.P,U1,25,GPIO20*%
%TO.N,IO20*%
X109860000Y-57410000D03*
%TO.P,U1,24,GPIO19*%
%TO.N,IO19*%
X109860000Y-59950000D03*
%TO.P,U1,23,GPIO18*%
%TO.N,IO18*%
X109860000Y-62490000D03*
%TO.P,U1,22,GPIO9/BOOT*%
%TO.N,IO9*%
X109860000Y-65030000D03*
%TO.P,U1,21,GND*%
%TO.N,GND*%
X109860000Y-67570000D03*
%TO.P,U1,20,GPIO13/USB_D+*%
%TO.N,unconnected-(U1-GPIO13{slash}USB_D+-Pad20)*%
X109860000Y-70110000D03*
%TO.P,U1,19,GPIO12/USB_D-*%
%TO.N,unconnected-(U1-GPIO12{slash}USB_D--Pad19)*%
X109860000Y-72650000D03*
%TO.P,U1,18,GND*%
%TO.N,GND*%
X109860000Y-75190000D03*
%TO.P,U1,17,NC*%
%TO.N,unconnected-(U1-NC-Pad17)*%
X109860000Y-77730000D03*
%TO.P,U1,16,NC*%
%TO.N,unconnected-(U1-NC-Pad16)*%
X87000000Y-77730000D03*
%TO.P,U1,15,GND*%
%TO.N,GND*%
X87000000Y-75190000D03*
%TO.P,U1,14,5V*%
%TO.N,+5V*%
X87000000Y-72650000D03*
%TO.P,U1,13,GPIO3*%
%TO.N,IO3*%
X87000000Y-70110000D03*
%TO.P,U1,12,GPIO2*%
%TO.N,IO2*%
X87000000Y-67570000D03*
%TO.P,U1,11,GPIO11*%
%TO.N,IO11*%
X87000000Y-65030000D03*
%TO.P,U1,10,GPIO10*%
%TO.N,IO10*%
X87000000Y-62490000D03*
%TO.P,U1,9,GPIO8/BOOT*%
%TO.N,IO8*%
X87000000Y-59950000D03*
%TO.P,U1,8,GPIO1*%
%TO.N,IO1*%
X87000000Y-57410000D03*
%TO.P,U1,7,GPIO0*%
%TO.N,IO0*%
X87000000Y-54870000D03*
%TO.P,U1,6,GPIO7*%
%TO.N,IO7*%
X87000000Y-52330000D03*
%TO.P,U1,5,GPIO6*%
%TO.N,IO6*%
X87000000Y-49790000D03*
%TO.P,U1,4,GPIO5/MTDI*%
%TO.N,IO5*%
X87000000Y-47250000D03*
%TO.P,U1,3,GPIO4/MTMS*%
%TO.N,IO4*%
X87000000Y-44710000D03*
%TO.P,U1,2,EN/RESET*%
%TO.N,unconnected-(U1-EN{slash}RESET-Pad2)*%
X87000000Y-42170000D03*
D22*
%TO.P,U1,1,3V3*%
%TO.N,+3.3V*%
X87000000Y-39630000D03*
%TD*%
D10*
%TO.P,C5,2*%
%TO.N,GND*%
X118500000Y-75500000D03*
%TO.P,C5,1*%
%TO.N,VIN*%
X118500000Y-80500000D03*
%TD*%
D11*
%TO.P,J12,3,Pin_3*%
%TO.N,+5V*%
X168210000Y-79000000D03*
%TO.P,J12,2,Pin_2*%
X170750000Y-79000000D03*
D12*
%TO.P,J12,1,Pin_1*%
X173290000Y-79000000D03*
%TD*%
D11*
%TO.P,J3,3,Pin_3*%
%TO.N,+5V*%
X161040000Y-60000000D03*
%TO.P,J3,2,Pin_2*%
%TO.N,Net-(J3-Pin_2)*%
X163580000Y-60000000D03*
D12*
%TO.P,J3,1,Pin_1*%
%TO.N,VIN*%
X166120000Y-60000000D03*
%TD*%
D10*
%TO.P,R3,2*%
%TO.N,IO23*%
X124000000Y-43160000D03*
%TO.P,R3,1*%
%TO.N,+3.3V*%
X124000000Y-33000000D03*
%TD*%
%TO.P,C9,2*%
%TO.N,GND*%
X144500000Y-35500000D03*
%TO.P,C9,1*%
%TO.N,IO19*%
X149500000Y-35500000D03*
%TD*%
D23*
%TO.P,J1,12,Pin_12*%
%TO.N,GND*%
X155525000Y-63300000D03*
%TO.P,J1,11,Pin_11*%
%TO.N,+5V*%
X155525000Y-60800000D03*
%TO.P,J1,10,Pin_10*%
%TO.N,+3.3V*%
X155525000Y-58300000D03*
%TO.P,J1,9,Pin_9*%
%TO.N,AuxIO*%
X155525000Y-55800000D03*
%TO.P,J1,8,Pin_8*%
%TO.N,IO11*%
X155525000Y-53300000D03*
%TO.P,J1,7,Pin_7*%
%TO.N,IO10*%
X155525000Y-50800000D03*
%TO.P,J1,6,Pin_6*%
%TO.N,IO20*%
X155525000Y-48300000D03*
%TO.P,J1,5,Pin_5*%
%TO.N,IO21*%
X155525000Y-45800000D03*
%TO.P,J1,4,Pin_4*%
%TO.N,IO3*%
X155525000Y-43300000D03*
%TO.P,J1,3,Pin_3*%
%TO.N,IO2*%
X155525000Y-40800000D03*
%TO.P,J1,2,Pin_2*%
%TO.N,IO1*%
X155525000Y-38300000D03*
D24*
%TO.P,J1,1,Pin_1*%
%TO.N,IO0*%
X155525000Y-35800000D03*
%TD*%
D10*
%TO.P,R11,2*%
%TO.N,Net-(R11-Pad2)*%
X139340000Y-41500000D03*
%TO.P,R11,1*%
%TO.N,+3.3V*%
X149500000Y-41500000D03*
%TD*%
%TO.P,C4,2*%
%TO.N,GND*%
X71500000Y-71500000D03*
D25*
%TO.P,C4,1*%
%TO.N,+5V*%
X71500000Y-74000000D03*
%TD*%
D10*
%TO.P,R7,2*%
%TO.N,Net-(R7-Pad2)*%
X137160000Y-34000000D03*
%TO.P,R7,1*%
%TO.N,+3.3V*%
X127000000Y-34000000D03*
%TD*%
D26*
%TO.P,J16,3,Pin_3*%
%TO.N,+3.3V*%
X146500000Y-57475000D03*
%TO.P,J16,2,Pin_2*%
%TO.N,IO21*%
X144000000Y-57475000D03*
D27*
%TO.P,J16,1,Pin_1*%
%TO.N,GND*%
X141500000Y-57475000D03*
%TD*%
D11*
%TO.P,J11,3,Pin_3*%
%TO.N,+3.3V*%
X167000000Y-75000000D03*
%TO.P,J11,2,Pin_2*%
X169540000Y-75000000D03*
D12*
%TO.P,J11,1,Pin_1*%
X172080000Y-75000000D03*
%TD*%
D28*
%TO.P,C10,2*%
%TO.N,GND*%
X129000000Y-67000000D03*
D29*
%TO.P,C10,1*%
%TO.N,+5V*%
X134000000Y-67000000D03*
%TD*%
D23*
%TO.P,J8,12,Pin_12*%
%TO.N,GND*%
X173500000Y-69840000D03*
%TO.P,J8,11,Pin_11*%
%TO.N,VIN*%
X173500000Y-67340000D03*
%TO.P,J8,10,Pin_10*%
%TO.N,+5V*%
X173500000Y-64840000D03*
%TO.P,J8,9,Pin_9*%
%TO.N,+3.3V*%
X173500000Y-62340000D03*
%TO.P,J8,8,Pin_8*%
%TO.N,Net-(J8-Pin_8)*%
X173500000Y-59840000D03*
%TO.P,J8,7,Pin_7*%
%TO.N,Net-(J8-Pin_7)*%
X173500000Y-57340000D03*
%TO.P,J8,6,Pin_6*%
%TO.N,Net-(J8-Pin_6)*%
X173500000Y-54840000D03*
%TO.P,J8,5,Pin_5*%
%TO.N,Net-(J8-Pin_5)*%
X173500000Y-52340000D03*
%TO.P,J8,4,Pin_4*%
%TO.N,Net-(J8-Pin_4)*%
X173500000Y-49840000D03*
%TO.P,J8,3,Pin_3*%
%TO.N,Net-(J8-Pin_3)*%
X173500000Y-47340000D03*
%TO.P,J8,2,Pin_2*%
%TO.N,Net-(J8-Pin_2)*%
X173500000Y-44840000D03*
D24*
%TO.P,J8,1,Pin_1*%
%TO.N,Net-(J8-Pin_1)*%
X173500000Y-42340000D03*
%TD*%
D10*
%TO.P,R8,2*%
%TO.N,IO9*%
X127000000Y-38000000D03*
%TO.P,R8,1*%
%TO.N,Net-(R7-Pad2)*%
X137160000Y-38000000D03*
%TD*%
%TO.P,R2,2*%
%TO.N,+3.3V*%
X121000000Y-32920000D03*
%TO.P,R2,1*%
%TO.N,IO22*%
X121000000Y-43080000D03*
%TD*%
D11*
%TO.P,J13,3,Pin_3*%
%TO.N,VIN*%
X167000000Y-63920000D03*
%TO.P,J13,2,Pin_2*%
X167000000Y-66460000D03*
D12*
%TO.P,J13,1,Pin_1*%
X167000000Y-69000000D03*
%TD*%
D23*
%TO.P,J10,4,Pin_4*%
%TO.N,IO22*%
X116000000Y-44500000D03*
%TO.P,J10,3,Pin_3*%
%TO.N,IO23*%
X116000000Y-42000000D03*
%TO.P,J10,2,Pin_2*%
%TO.N,+3.3V*%
X116000000Y-39500000D03*
D24*
%TO.P,J10,1,Pin_1*%
%TO.N,GND*%
X116000000Y-37000000D03*
%TD*%
D17*
%TO.P,SW2,2,2*%
%TO.N,Net-(R13-Pad2)*%
X58750000Y-64500000D03*
X71250000Y-64500000D03*
%TO.P,SW2,1,1*%
%TO.N,GND*%
X58750000Y-59500000D03*
X71250000Y-59500000D03*
%TD*%
D30*
%TO.P,D2,2,A*%
%TO.N,GND*%
X82500000Y-87490000D03*
D31*
%TO.P,D2,1,K*%
%TO.N,Net-(D2-K)*%
X82500000Y-72250000D03*
%TD*%
D26*
%TO.P,J5,3,Pin_3*%
%TO.N,IO10*%
X146500000Y-74000000D03*
%TO.P,J5,2,Pin_2*%
%TO.N,+5V*%
X144000000Y-74000000D03*
D27*
%TO.P,J5,1,Pin_1*%
%TO.N,GND*%
X141500000Y-74000000D03*
%TD*%
D26*
%TO.P,J14,3,Pin_3*%
%TO.N,IO11*%
X158000000Y-70500000D03*
%TO.P,J14,2,Pin_2*%
%TO.N,+5V*%
X155500000Y-70500000D03*
D27*
%TO.P,J14,1,Pin_1*%
%TO.N,GND*%
X153000000Y-70500000D03*
%TD*%
D26*
%TO.P,J2,3,Pin_3*%
%TO.N,+3.3V*%
X146500000Y-66000000D03*
%TO.P,J2,2,Pin_2*%
%TO.N,IO20*%
X144000000Y-66000000D03*
D27*
%TO.P,J2,1,Pin_1*%
%TO.N,GND*%
X141500000Y-66000000D03*
%TD*%
D10*
%TO.P,R13,2*%
%TO.N,Net-(R13-Pad2)*%
X75000000Y-67160000D03*
%TO.P,R13,1*%
%TO.N,IO5*%
X75000000Y-57000000D03*
%TD*%
%TO.P,R10,2*%
%TO.N,IO18*%
X149500000Y-47500000D03*
%TO.P,R10,1*%
%TO.N,Net-(R10-Pad1)*%
X139340000Y-47500000D03*
%TD*%
%TO.P,C2,2*%
%TO.N,GND*%
X81000000Y-35000000D03*
D25*
%TO.P,C2,1*%
%TO.N,+3.3V*%
X81000000Y-37500000D03*
%TD*%
D10*
%TO.P,R14,2*%
%TO.N,Net-(R14-Pad2)*%
X75000000Y-37000000D03*
%TO.P,R14,1*%
%TO.N,+3.3V*%
X64840000Y-37000000D03*
%TD*%
D11*
%TO.P,J17,4,Pin_4*%
%TO.N,IO22*%
X94000000Y-37000000D03*
%TO.P,J17,3,Pin_3*%
%TO.N,IO23*%
X96540000Y-37000000D03*
%TO.P,J17,2,Pin_2*%
%TO.N,+3.3V*%
X99080000Y-37000000D03*
D12*
%TO.P,J17,1,Pin_1*%
%TO.N,GND*%
X101620000Y-37000000D03*
%TD*%
D10*
%TO.P,R9,2*%
%TO.N,Net-(R10-Pad1)*%
X139340000Y-44500000D03*
%TO.P,R9,1*%
%TO.N,+3.3V*%
X149500000Y-44500000D03*
%TD*%
%TO.P,C6,2*%
%TO.N,GND*%
X116000000Y-87000000D03*
D32*
%TO.P,C6,1*%
%TO.N,VIN*%
X116000000Y-84500000D03*
%TD*%
D18*
%TO.P,BZ1,2,-*%
%TO.N,SPKR*%
X163000000Y-82000000D03*
D20*
%TO.P,BZ1,1,+*%
%TO.N,+5V*%
X153000000Y-82000000D03*
%TD*%
D10*
%TO.P,R15,2*%
%TO.N,Net-(R14-Pad2)*%
X75000000Y-39920000D03*
%TO.P,R15,1*%
%TO.N,IO4*%
X75000000Y-50080000D03*
%TD*%
%TO.P,U2,18,O1*%
%TO.N,Net-(J8-Pin_1)*%
X167620000Y-35760000D03*
%TO.P,U2,17,O2*%
%TO.N,Net-(J8-Pin_2)*%
X167620000Y-38300000D03*
%TO.P,U2,16,O3*%
%TO.N,Net-(J8-Pin_3)*%
X167620000Y-40840000D03*
%TO.P,U2,15,O4*%
%TO.N,Net-(J8-Pin_4)*%
X167620000Y-43380000D03*
%TO.P,U2,14,O5*%
%TO.N,Net-(J8-Pin_5)*%
X167620000Y-45920000D03*
%TO.P,U2,13,O6*%
%TO.N,Net-(J8-Pin_6)*%
X167620000Y-48460000D03*
%TO.P,U2,12,O7*%
%TO.N,Net-(J8-Pin_7)*%
X167620000Y-51000000D03*
%TO.P,U2,11,O8*%
%TO.N,Net-(J8-Pin_8)*%
X167620000Y-53540000D03*
%TO.P,U2,10,GND*%
%TO.N,GND*%
X167620000Y-56080000D03*
%TO.P,U2,9,VCC*%
%TO.N,Net-(J3-Pin_2)*%
X160000000Y-56080000D03*
%TO.P,U2,8,I8*%
%TO.N,IO11*%
X160000000Y-53540000D03*
%TO.P,U2,7,I7*%
%TO.N,IO10*%
X160000000Y-51000000D03*
%TO.P,U2,6,I6*%
%TO.N,IO20*%
X160000000Y-48460000D03*
%TO.P,U2,5,I5*%
%TO.N,IO21*%
X160000000Y-45920000D03*
%TO.P,U2,4,I4*%
%TO.N,IO3*%
X160000000Y-43380000D03*
%TO.P,U2,3,I3*%
%TO.N,IO2*%
X160000000Y-40840000D03*
%TO.P,U2,2,I2*%
%TO.N,IO1*%
X160000000Y-38300000D03*
D33*
%TO.P,U2,1,I1*%
%TO.N,IO0*%
X160000000Y-35760000D03*
%TD*%
D34*
%TO.P,Q1,3,C*%
%TO.N,Net-(Q1-C)*%
X140000000Y-85960000D03*
%TO.P,Q1,2,B*%
%TO.N,Net-(Q1-B)*%
X140000000Y-87230000D03*
D35*
%TO.P,Q1,1,E*%
%TO.N,GND*%
X140000000Y-88500000D03*
%TD*%
D10*
%TO.P,R4,2*%
%TO.N,Net-(Q1-C)*%
X138420000Y-82500000D03*
%TO.P,R4,1*%
%TO.N,SPKR*%
X148580000Y-82500000D03*
%TD*%
D11*
%TO.P,J9,11,Pin_11*%
%TO.N,IO3*%
X83322000Y-68515500D03*
%TO.P,J9,10,Pin_10*%
%TO.N,IO2*%
X83322000Y-65975500D03*
%TO.P,J9,9,Pin_9*%
%TO.N,IO11*%
X83322000Y-63435500D03*
%TO.P,J9,8,Pin_8*%
%TO.N,IO10*%
X83322000Y-60895500D03*
%TO.P,J9,7,Pin_7*%
%TO.N,IO8*%
X83322000Y-58355500D03*
%TO.P,J9,6,Pin_6*%
%TO.N,IO1*%
X83322000Y-55815500D03*
%TO.P,J9,5,Pin_5*%
%TO.N,IO0*%
X83322000Y-53275500D03*
%TO.P,J9,4,Pin_4*%
%TO.N,IO7*%
X83322000Y-50735500D03*
%TO.P,J9,3,Pin_3*%
%TO.N,IO6*%
X83322000Y-48195500D03*
%TO.P,J9,2,Pin_2*%
%TO.N,IO5*%
X83322000Y-45655500D03*
D12*
%TO.P,J9,1,Pin_1*%
%TO.N,IO4*%
X83322000Y-43115500D03*
%TD*%
D10*
%TO.P,R1,2*%
%TO.N,IO8*%
X135500000Y-78920000D03*
%TO.P,R1,1*%
%TO.N,Net-(Q1-B)*%
X135500000Y-89080000D03*
%TD*%
D36*
%TO.P,U3,5,~{ON}/OFF*%
%TO.N,GND*%
X76900000Y-87950000D03*
%TO.P,U3,4,FB*%
%TO.N,+5V*%
X75200000Y-87950000D03*
%TO.P,U3,3,GND*%
%TO.N,GND*%
X73500000Y-87950000D03*
%TO.P,U3,2,OUT*%
%TO.N,Net-(D2-K)*%
X71800000Y-87950000D03*
%TO.P,U3,1,VIN*%
%TO.N,VIN*%
X70100000Y-87950000D03*
%TD*%
D10*
%TO.P,C8,2*%
%TO.N,GND*%
X144500000Y-50500000D03*
%TO.P,C8,1*%
%TO.N,IO18*%
X149500000Y-50500000D03*
%TD*%
D37*
%TO.P,J7,3*%
%TO.N,GND*%
X130700000Y-83000000D03*
D38*
%TO.P,J7,2*%
%TO.N,unconnected-(J7-Pad2)*%
X126000000Y-86000000D03*
D39*
%TO.P,J7,1*%
%TO.N,Net-(J4-Pin_2)*%
X126000000Y-80000000D03*
%TD*%
D10*
%TO.P,R12,2*%
%TO.N,IO19*%
X149500000Y-38500000D03*
%TO.P,R12,1*%
%TO.N,Net-(R11-Pad2)*%
X139340000Y-38500000D03*
%TD*%
%TO.P,C1,2*%
%TO.N,GND*%
X70000000Y-34000000D03*
%TO.P,C1,1*%
%TO.N,+3.3V*%
X75000000Y-34000000D03*
%TD*%
%TO.P,C11,2*%
%TO.N,GND*%
X70500000Y-53000000D03*
%TO.P,C11,1*%
%TO.N,IO5*%
X75500000Y-53000000D03*
%TD*%
D40*
%TO.N,SPKR*%
X151000000Y-84000000D03*
X154000000Y-84000000D03*
%TO.N,IO9*%
X117000000Y-52250000D03*
%TO.N,IO19*%
X138750000Y-40250000D03*
X116258323Y-52954000D03*
X140000000Y-40250000D03*
%TO.N,IO0*%
X148000000Y-37000000D03*
X152250000Y-36750000D03*
%TO.N,IO10*%
X91240000Y-62490000D03*
X132750000Y-59250000D03*
X150074000Y-51855077D03*
X92500000Y-63750000D03*
X133500000Y-61000000D03*
X152250000Y-51250000D03*
X144375000Y-71875000D03*
%TO.N,IO11*%
X149653912Y-52653912D03*
X90000000Y-66206000D03*
X152250000Y-53300000D03*
X157000000Y-57000000D03*
X160250000Y-62500000D03*
%TO.N,IO1*%
X149500000Y-40000000D03*
X152250000Y-38300000D03*
%TO.N,IO3*%
X149500000Y-46199997D03*
X151125000Y-44625000D03*
%TO.N,IO2*%
X150750000Y-42750000D03*
X148250000Y-43000000D03*
%TO.N,IO20*%
X125250000Y-57750000D03*
X152250000Y-48300000D03*
X134750000Y-56250000D03*
X137750000Y-58500000D03*
X123000000Y-57750000D03*
X148500000Y-49500000D03*
%TO.N,IO21*%
X125799896Y-57049896D03*
X143250000Y-53000000D03*
X150000000Y-48750000D03*
X143250000Y-48000000D03*
X123500000Y-57000000D03*
X152177000Y-46927000D03*
X115705323Y-55075323D03*
%TO.N,IO8*%
X88900000Y-61850000D03*
X91250000Y-67000000D03*
X125875000Y-75125000D03*
%TO.N,Net-(R7-Pad2)*%
X123500000Y-51750000D03*
%TO.N,Net-(R10-Pad1)*%
X138000000Y-49750000D03*
%TO.N,AuxIO*%
X113000000Y-69500000D03*
X87750000Y-68750000D03*
X153500000Y-58500000D03*
X118750000Y-66750000D03*
X89250000Y-68750000D03*
X139000000Y-68000000D03*
X141500000Y-68000000D03*
X117625000Y-67875000D03*
X80250000Y-47500000D03*
X78000000Y-41500000D03*
X80250000Y-49750000D03*
%TD*%
D41*
%TO.N,SPKR*%
X148580000Y-82500000D02*
X150080000Y-84000000D01*
X148580000Y-82500000D02*
X143380000Y-87700000D01*
X163000000Y-82000000D02*
X162500000Y-82000000D01*
X150080000Y-84000000D02*
X151000000Y-84000000D01*
X160500000Y-84000000D02*
X154000000Y-84000000D01*
X162500000Y-82000000D02*
X160500000Y-84000000D01*
X143380000Y-87700000D02*
X143380000Y-88500000D01*
D42*
%TO.N,+5V*%
X158514000Y-62526000D02*
X161040000Y-60000000D01*
X145726000Y-72274000D02*
X153973556Y-72274000D01*
X64580000Y-79580000D02*
X64580000Y-75750000D01*
X117857554Y-78949000D02*
X120949000Y-78949000D01*
X157251000Y-62526000D02*
X155525000Y-60800000D01*
X152500000Y-82500000D02*
X153000000Y-82000000D01*
X71500000Y-74000000D02*
X66330000Y-74000000D01*
X91000000Y-88000000D02*
X108806554Y-88000000D01*
X175226000Y-66566000D02*
X173500000Y-64840000D01*
X170750000Y-79000000D02*
X173290000Y-79000000D01*
X134000000Y-69000000D02*
X134000000Y-67000000D01*
X122501000Y-77499000D02*
X125501000Y-77499000D01*
X155500000Y-79000000D02*
X168210000Y-79000000D01*
X153000000Y-81500000D02*
X155500000Y-79000000D01*
X77750000Y-83080000D02*
X68420000Y-83080000D01*
X174500000Y-79000000D02*
X175226000Y-78274000D01*
X168210000Y-79000000D02*
X168420000Y-78790000D01*
X83879397Y-80879397D02*
X91000000Y-88000000D01*
X155500000Y-70500000D02*
X157251000Y-68749000D01*
X120949000Y-78949000D02*
X121000000Y-79000000D01*
X175226000Y-78274000D02*
X175226000Y-66566000D01*
X83879397Y-76000000D02*
X87000000Y-72879397D01*
X73500000Y-76000000D02*
X83879397Y-76000000D01*
X68420000Y-83080000D02*
X68250000Y-83250000D01*
X153973556Y-72274000D02*
X155500000Y-70747556D01*
X125501000Y-77499000D02*
X134000000Y-69000000D01*
X168210000Y-79000000D02*
X170750000Y-79000000D01*
X157251000Y-62526000D02*
X158514000Y-62526000D01*
X66330000Y-74000000D02*
X64580000Y-75750000D01*
X152500000Y-87000000D02*
X152500000Y-82500000D01*
X121000000Y-79000000D02*
X122501000Y-77499000D01*
X87000000Y-72879397D02*
X87000000Y-72650000D01*
X144000000Y-74000000D02*
X145726000Y-72274000D01*
X155500000Y-70747556D02*
X155500000Y-70500000D01*
X173290000Y-79000000D02*
X174500000Y-79000000D01*
X144000000Y-74000000D02*
X144000000Y-73752444D01*
X144000000Y-73752444D02*
X142247556Y-72000000D01*
X137000000Y-72000000D02*
X134000000Y-69000000D01*
X151000000Y-88500000D02*
X152500000Y-87000000D01*
X108806554Y-88000000D02*
X117857554Y-78949000D01*
X83879397Y-76000000D02*
X83879397Y-80879397D01*
X142247556Y-72000000D02*
X137000000Y-72000000D01*
X153000000Y-82000000D02*
X153000000Y-81500000D01*
X68250000Y-83250000D02*
X64580000Y-79580000D01*
X71500000Y-74000000D02*
X73500000Y-76000000D01*
X157251000Y-68749000D02*
X157251000Y-62526000D01*
D43*
%TO.N,+3.3V*%
X72000000Y-37000000D02*
X64840000Y-37000000D01*
X64840000Y-37000000D02*
X64840000Y-44160000D01*
D42*
X121000000Y-32920000D02*
X123920000Y-32920000D01*
X155525000Y-58300000D02*
X169460000Y-58300000D01*
X146500000Y-57475000D02*
X154700000Y-57475000D01*
X151051000Y-52924000D02*
X146500000Y-57475000D01*
X151051000Y-46051000D02*
X151051000Y-52924000D01*
X114175000Y-39500000D02*
X116000000Y-39500000D01*
X124000000Y-33000000D02*
X126000000Y-33000000D01*
X116000000Y-39500000D02*
X117825000Y-39500000D01*
D43*
X146500000Y-57475000D02*
X146500000Y-66000000D01*
D42*
X99080000Y-37000000D02*
X99080000Y-36338000D01*
X169540000Y-75000000D02*
X167000000Y-75000000D01*
X128551000Y-32449000D02*
X148699000Y-32449000D01*
X99080000Y-34580000D02*
X99080000Y-37000000D01*
X78500000Y-37500000D02*
X75000000Y-34000000D01*
X110074000Y-35399000D02*
X114175000Y-39500000D01*
X117825000Y-39500000D02*
X121000000Y-36325000D01*
X100019000Y-35399000D02*
X110074000Y-35399000D01*
X172080000Y-75000000D02*
X169540000Y-75000000D01*
X99080000Y-36338000D02*
X100019000Y-35399000D01*
X151051000Y-34801000D02*
X151051000Y-39949000D01*
X127000000Y-34000000D02*
X128551000Y-32449000D01*
X83130000Y-39630000D02*
X81000000Y-37500000D01*
X81000000Y-37500000D02*
X78500000Y-37500000D01*
D43*
X75000000Y-34000000D02*
X72000000Y-37000000D01*
D42*
X148699000Y-32449000D02*
X151051000Y-34801000D01*
X87000000Y-36500000D02*
X89500000Y-34000000D01*
X87000000Y-39630000D02*
X87000000Y-36500000D01*
D43*
X57840000Y-51160000D02*
X57840000Y-53000000D01*
D42*
X149500000Y-44500000D02*
X151051000Y-46051000D01*
X154700000Y-57475000D02*
X155525000Y-58300000D01*
X98500000Y-34000000D02*
X99080000Y-34580000D01*
X123920000Y-32920000D02*
X124000000Y-33000000D01*
X121000000Y-36325000D02*
X121000000Y-32920000D01*
D43*
X64840000Y-44160000D02*
X57840000Y-51160000D01*
D42*
X169460000Y-58300000D02*
X173500000Y-62340000D01*
X89500000Y-34000000D02*
X98500000Y-34000000D01*
X87000000Y-39630000D02*
X83130000Y-39630000D01*
X151051000Y-39949000D02*
X149500000Y-41500000D01*
X126000000Y-33000000D02*
X127000000Y-34000000D01*
X149500000Y-41500000D02*
X149500000Y-44500000D01*
D44*
%TO.N,VIN*%
X85490000Y-84939000D02*
X71259000Y-84939000D01*
X132000000Y-76000000D02*
X133401000Y-77401000D01*
X133401000Y-84638652D02*
X129588652Y-88451000D01*
X116000000Y-84500000D02*
X111051000Y-89449000D01*
X71259000Y-84939000D02*
X70100000Y-86098000D01*
X116000000Y-83000000D02*
X118500000Y-80500000D01*
X129588652Y-88451000D02*
X119951000Y-88451000D01*
X167000000Y-60880000D02*
X166120000Y-60000000D01*
X167000000Y-66460000D02*
X167000000Y-63920000D01*
X119951000Y-88451000D02*
X116000000Y-84500000D01*
X168660000Y-67340000D02*
X173500000Y-67340000D01*
X116000000Y-84500000D02*
X116000000Y-83000000D01*
X167000000Y-69000000D02*
X168660000Y-67340000D01*
X111051000Y-89449000D02*
X90000000Y-89449000D01*
X160000000Y-76000000D02*
X167000000Y-69000000D01*
X132000000Y-76000000D02*
X160000000Y-76000000D01*
X167000000Y-69000000D02*
X167000000Y-66460000D01*
X90000000Y-89449000D02*
X85490000Y-84939000D01*
X167000000Y-63920000D02*
X167000000Y-60880000D01*
X133401000Y-77401000D02*
X133401000Y-84638652D01*
X70100000Y-86098000D02*
X70100000Y-87950000D01*
D41*
%TO.N,IO9*%
X109860000Y-65030000D02*
X113360000Y-65030000D01*
X117000000Y-52250000D02*
X117000000Y-52000000D01*
X127000000Y-42000000D02*
X127000000Y-38000000D01*
X117000000Y-52000000D02*
X127000000Y-42000000D01*
%TO.N,IO18*%
X113360000Y-62390000D02*
X116250000Y-59500000D01*
X127340425Y-56826000D02*
X137049248Y-56826000D01*
X137687376Y-56312624D02*
X142374000Y-51626000D01*
X113360000Y-62490000D02*
X113360000Y-62390000D01*
X137049248Y-56826000D02*
X137562624Y-56312624D01*
X142374000Y-51626000D02*
X148374000Y-51626000D01*
X109860000Y-62490000D02*
X113360000Y-62490000D01*
X116250000Y-59500000D02*
X124666425Y-59500000D01*
X148374000Y-51626000D02*
X149500000Y-50500000D01*
X124666425Y-59500000D02*
X127340425Y-56826000D01*
X137562624Y-56312624D02*
X137687376Y-56312624D01*
%TO.N,IO19*%
X138214000Y-41286000D02*
X138214000Y-40786000D01*
X141715428Y-40250000D02*
X146465428Y-35500000D01*
X116304323Y-53000000D02*
X121750000Y-53000000D01*
X109860000Y-59950000D02*
X113360000Y-59950000D01*
X116258323Y-52954000D02*
X116304323Y-53000000D01*
X138214000Y-40786000D02*
X138750000Y-40250000D01*
X121750000Y-53000000D02*
X126500000Y-53000000D01*
X146465428Y-35500000D02*
X149500000Y-35500000D01*
X149500000Y-35500000D02*
X149500000Y-38500000D01*
X126500000Y-53000000D02*
X138214000Y-41286000D01*
X140000000Y-40250000D02*
X141715428Y-40250000D01*
%TO.N,IO5*%
X84916500Y-47250000D02*
X87000000Y-47250000D01*
X83322000Y-45655500D02*
X83322000Y-45770405D01*
X75500000Y-56500000D02*
X75000000Y-57000000D01*
X83322000Y-45770405D02*
X76092405Y-53000000D01*
X76092405Y-53000000D02*
X75500000Y-53000000D01*
X75500000Y-53000000D02*
X75500000Y-56500000D01*
X83322000Y-45655500D02*
X84916500Y-47250000D01*
%TO.N,IO4*%
X83322000Y-43115500D02*
X83322000Y-44479500D01*
X82146000Y-46142616D02*
X82280608Y-46277225D01*
X76580000Y-48500000D02*
X75000000Y-50080000D01*
X82146000Y-45168384D02*
X82146000Y-46142616D01*
X78250000Y-48500000D02*
X76580000Y-48500000D01*
X85405500Y-43115500D02*
X87000000Y-44710000D01*
X82834884Y-44479500D02*
X82146000Y-45168384D01*
X80120333Y-48437500D02*
X78000000Y-48437500D01*
X83322000Y-44479500D02*
X82834884Y-44479500D01*
X82280608Y-46277225D02*
X80120333Y-48437500D01*
X83322000Y-43115500D02*
X85405500Y-43115500D01*
D42*
%TO.N,Net-(D2-K)*%
X80199000Y-69949000D02*
X82500000Y-72250000D01*
X64801000Y-69949000D02*
X80199000Y-69949000D01*
X59000000Y-75750000D02*
X64801000Y-69949000D01*
D44*
%TO.N,Net-(J4-Pin_2)*%
X126000000Y-79460000D02*
X129460000Y-76000000D01*
X126000000Y-80000000D02*
X126000000Y-79460000D01*
D41*
%TO.N,IO0*%
X159960000Y-35800000D02*
X160000000Y-35760000D01*
X126674405Y-53506000D02*
X137554405Y-42626000D01*
X155525000Y-35800000D02*
X159960000Y-35800000D01*
X87000000Y-54870000D02*
X88364000Y-53506000D01*
X84916500Y-54870000D02*
X87000000Y-54870000D01*
X83322000Y-53275500D02*
X84916500Y-54870000D01*
X139874000Y-42626000D02*
X145500000Y-37000000D01*
X145500000Y-37000000D02*
X148000000Y-37000000D01*
X153200000Y-35800000D02*
X155525000Y-35800000D01*
X88364000Y-53506000D02*
X126674405Y-53506000D01*
X152250000Y-36750000D02*
X153200000Y-35800000D01*
X137554405Y-42626000D02*
X139874000Y-42626000D01*
%TO.N,IO10*%
X152250000Y-51250000D02*
X152700000Y-50800000D01*
X149546489Y-51855077D02*
X149397566Y-52004000D01*
X92500000Y-63750000D02*
X114000000Y-63750000D01*
X114750000Y-63000000D02*
X114750000Y-61534572D01*
X159800000Y-50800000D02*
X160000000Y-51000000D01*
X87000000Y-62490000D02*
X91240000Y-62490000D01*
X134715428Y-60000000D02*
X132750000Y-60000000D01*
X114000000Y-63750000D02*
X114750000Y-63000000D01*
X150074000Y-51855077D02*
X149546489Y-51855077D01*
X144375000Y-71875000D02*
X133500000Y-61000000D01*
X155525000Y-50800000D02*
X159800000Y-50800000D01*
X116284572Y-60000000D02*
X132750000Y-60000000D01*
X84916500Y-62490000D02*
X87000000Y-62490000D01*
X114750000Y-61534572D02*
X116284572Y-60000000D01*
X149397566Y-52004000D02*
X142711428Y-52004000D01*
X83322000Y-60895500D02*
X84916500Y-62490000D01*
X91240000Y-62490000D02*
X91250000Y-62500000D01*
X142711428Y-52004000D02*
X134715428Y-60000000D01*
X152700000Y-50800000D02*
X155525000Y-50800000D01*
X132750000Y-59250000D02*
X132750000Y-60000000D01*
%TO.N,IO11*%
X157000000Y-57000000D02*
X157000000Y-54775000D01*
X84916500Y-65030000D02*
X87000000Y-65030000D01*
X149653912Y-52653912D02*
X149382000Y-52382000D01*
X152250000Y-53300000D02*
X155525000Y-53300000D01*
X155525000Y-53300000D02*
X159760000Y-53300000D01*
X149382000Y-52382000D02*
X142868000Y-52382000D01*
X159760000Y-53300000D02*
X160000000Y-53540000D01*
X116872000Y-60378000D02*
X115250000Y-62000000D01*
X134872000Y-60378000D02*
X116872000Y-60378000D01*
X158000000Y-70500000D02*
X160250000Y-68250000D01*
X142868000Y-52382000D02*
X134872000Y-60378000D01*
X115250000Y-62000000D02*
X115250000Y-64803116D01*
X160250000Y-68250000D02*
X160250000Y-62500000D01*
X115250000Y-64803116D02*
X113847116Y-66206000D01*
X157000000Y-54775000D02*
X155525000Y-53300000D01*
X83322000Y-63435500D02*
X84916500Y-65030000D01*
X113847116Y-66206000D02*
X90000000Y-66206000D01*
%TO.N,IO1*%
X88176000Y-56234000D02*
X113766000Y-56234000D01*
X113766000Y-56234000D02*
X116000000Y-54000000D01*
X152250000Y-38300000D02*
X155525000Y-38300000D01*
X83322000Y-55815500D02*
X84916500Y-57410000D01*
X155525000Y-38300000D02*
X160000000Y-38300000D01*
X143034573Y-40000000D02*
X149500000Y-40000000D01*
X87000000Y-57410000D02*
X88176000Y-56234000D01*
X140030573Y-43004000D02*
X143034573Y-40000000D01*
X84916500Y-57410000D02*
X87000000Y-57410000D01*
X116000000Y-54000000D02*
X127000000Y-54000000D01*
X127000000Y-54000000D02*
X137996000Y-43004000D01*
X137996000Y-43004000D02*
X140030573Y-43004000D01*
%TO.N,IO3*%
X87390000Y-70110000D02*
X87000000Y-70110000D01*
X88500000Y-66604572D02*
X88500000Y-69000000D01*
X149449997Y-46250000D02*
X135819144Y-46250000D01*
X93854572Y-61250000D02*
X88500000Y-66604572D01*
X159920000Y-43300000D02*
X160000000Y-43380000D01*
X84916500Y-70110000D02*
X87000000Y-70110000D01*
X116122000Y-58878000D02*
X113750000Y-61250000D01*
X155525000Y-43300000D02*
X159920000Y-43300000D01*
X152450000Y-43300000D02*
X155525000Y-43300000D01*
X135819144Y-46250000D02*
X123191145Y-58878000D01*
X83322000Y-68515500D02*
X84916500Y-70110000D01*
X113750000Y-61250000D02*
X93854572Y-61250000D01*
X151125000Y-44625000D02*
X152450000Y-43300000D01*
X149500000Y-46199997D02*
X149449997Y-46250000D01*
X88500000Y-69000000D02*
X87390000Y-70110000D01*
X123191145Y-58878000D02*
X116122000Y-58878000D01*
%TO.N,IO2*%
X152700000Y-40800000D02*
X155525000Y-40800000D01*
X159960000Y-40800000D02*
X160000000Y-40840000D01*
X150750000Y-42750000D02*
X152700000Y-40800000D01*
X95984000Y-58586000D02*
X87000000Y-67570000D01*
X155525000Y-40800000D02*
X159960000Y-40800000D01*
X83322000Y-65975500D02*
X84916500Y-67570000D01*
X140000000Y-45750000D02*
X135784572Y-45750000D01*
X148250000Y-43000000D02*
X142750000Y-43000000D01*
X135784572Y-45750000D02*
X123034572Y-58500000D01*
X123034572Y-58500000D02*
X114500000Y-58500000D01*
X114414000Y-58586000D02*
X95984000Y-58586000D01*
X84916500Y-67570000D02*
X87000000Y-67570000D01*
X114500000Y-58500000D02*
X114414000Y-58586000D01*
X142750000Y-43000000D02*
X140000000Y-45750000D01*
%TO.N,IO20*%
X134750000Y-56250000D02*
X131065926Y-52565926D01*
X122660000Y-57410000D02*
X123000000Y-57750000D01*
X145750000Y-49174000D02*
X148174000Y-49174000D01*
X144000000Y-66000000D02*
X144000000Y-64750000D01*
X131065926Y-52565926D02*
X134457853Y-49174000D01*
X125881853Y-57750000D02*
X131065926Y-52565926D01*
X148174000Y-49174000D02*
X148500000Y-49500000D01*
X113360000Y-57410000D02*
X122660000Y-57410000D01*
X125250000Y-57750000D02*
X125881853Y-57750000D01*
X144000000Y-64750000D02*
X137750000Y-58500000D01*
X159840000Y-48300000D02*
X160000000Y-48460000D01*
X152250000Y-48300000D02*
X155525000Y-48300000D01*
X134457853Y-49174000D02*
X145750000Y-49174000D01*
X109860000Y-57410000D02*
X113360000Y-57410000D01*
X155525000Y-48300000D02*
X159840000Y-48300000D01*
%TO.N,Net-(J8-Pin_1)*%
X173500000Y-41640000D02*
X167620000Y-35760000D01*
X173500000Y-42340000D02*
X173500000Y-41640000D01*
%TO.N,Net-(J8-Pin_8)*%
X173500000Y-59420000D02*
X173500000Y-59840000D01*
X167620000Y-53540000D02*
X173500000Y-59420000D01*
%TO.N,Net-(J8-Pin_4)*%
X173500000Y-49260000D02*
X167620000Y-43380000D01*
X173500000Y-49840000D02*
X173500000Y-49260000D01*
%TO.N,Net-(J8-Pin_2)*%
X167620000Y-38300000D02*
X167620000Y-38960000D01*
X167620000Y-38960000D02*
X173500000Y-44840000D01*
%TO.N,Net-(J8-Pin_7)*%
X173500000Y-56880000D02*
X167620000Y-51000000D01*
X173500000Y-57340000D02*
X173500000Y-56880000D01*
%TO.N,Net-(J8-Pin_3)*%
X173500000Y-46720000D02*
X173500000Y-47340000D01*
X167620000Y-40840000D02*
X173500000Y-46720000D01*
%TO.N,Net-(J8-Pin_6)*%
X173500000Y-54340000D02*
X167620000Y-48460000D01*
X173500000Y-54840000D02*
X173500000Y-54340000D01*
%TO.N,Net-(J8-Pin_5)*%
X167620000Y-45920000D02*
X173500000Y-51800000D01*
X173500000Y-51800000D02*
X173500000Y-52340000D01*
%TO.N,IO7*%
X83322000Y-50735500D02*
X84916500Y-52330000D01*
X84916500Y-52330000D02*
X87000000Y-52330000D01*
%TO.N,IO21*%
X150000000Y-48750000D02*
X143250000Y-48750000D01*
X155525000Y-45800000D02*
X159880000Y-45800000D01*
X144000000Y-57475000D02*
X144000000Y-53750000D01*
X109860000Y-54870000D02*
X113360000Y-54870000D01*
X153304000Y-45800000D02*
X155525000Y-45800000D01*
X115705323Y-55205323D02*
X117500000Y-57000000D01*
X152177000Y-46927000D02*
X153304000Y-45800000D01*
X115705323Y-55075323D02*
X115705323Y-55205323D01*
X144000000Y-53750000D02*
X143250000Y-53000000D01*
X117500000Y-57000000D02*
X123500000Y-57000000D01*
X134099792Y-48750000D02*
X143250000Y-48750000D01*
X143250000Y-48750000D02*
X143250000Y-48000000D01*
X159880000Y-45800000D02*
X160000000Y-45920000D01*
X125799896Y-57049896D02*
X134099792Y-48750000D01*
%TO.N,IO6*%
X84916500Y-49790000D02*
X87000000Y-49790000D01*
X83322000Y-48195500D02*
X84916500Y-49790000D01*
%TO.N,Net-(Q1-C)*%
X140000000Y-84080000D02*
X138420000Y-82500000D01*
X140000000Y-85960000D02*
X140000000Y-84080000D01*
%TO.N,Net-(Q1-B)*%
X140000000Y-87230000D02*
X138770000Y-87230000D01*
X136920000Y-89080000D02*
X135500000Y-89080000D01*
X138770000Y-87230000D02*
X136920000Y-89080000D01*
%TO.N,IO8*%
X91250000Y-67000000D02*
X91606000Y-66644000D01*
X88900000Y-61850000D02*
X87000000Y-59950000D01*
X83322000Y-58355500D02*
X84916500Y-59950000D01*
X117394000Y-66644000D02*
X125875000Y-75125000D01*
X84916500Y-59950000D02*
X87000000Y-59950000D01*
X91606000Y-66644000D02*
X117394000Y-66644000D01*
%TO.N,IO22*%
X116000000Y-49690000D02*
X116000000Y-44500000D01*
X109860000Y-52330000D02*
X113360000Y-52330000D01*
X108710000Y-52330000D02*
X109860000Y-52330000D01*
X116000000Y-44500000D02*
X116500000Y-44500000D01*
X93380000Y-37000000D02*
X108710000Y-52330000D01*
X113360000Y-52330000D02*
X116000000Y-49690000D01*
X117920000Y-43080000D02*
X121000000Y-43080000D01*
X116500000Y-44500000D02*
X117920000Y-43080000D01*
%TO.N,IO23*%
X122794000Y-41954000D02*
X124000000Y-43160000D01*
X116046000Y-41954000D02*
X122794000Y-41954000D01*
X109860000Y-49790000D02*
X113360000Y-49790000D01*
X113360000Y-44640000D02*
X116000000Y-42000000D01*
X95920000Y-37000000D02*
X108710000Y-49790000D01*
X113360000Y-49790000D02*
X113360000Y-44640000D01*
X116000000Y-42000000D02*
X116046000Y-41954000D01*
X108710000Y-49790000D02*
X109860000Y-49790000D01*
%TO.N,Net-(R13-Pad2)*%
X72340000Y-64500000D02*
X75000000Y-67160000D01*
X71250000Y-64500000D02*
X72340000Y-64500000D01*
X68000000Y-53000000D02*
X68000000Y-61250000D01*
X58750000Y-64500000D02*
X71250000Y-64500000D01*
X68000000Y-61250000D02*
X71250000Y-64500000D01*
%TO.N,Net-(R7-Pad2)*%
X123500000Y-47092405D02*
X132592405Y-38000000D01*
X137160000Y-34000000D02*
X137160000Y-38000000D01*
X132592405Y-38000000D02*
X137160000Y-38000000D01*
X123500000Y-51750000D02*
X123500000Y-47092405D01*
%TO.N,Net-(R10-Pad1)*%
X138000000Y-54000000D02*
X136500000Y-55500000D01*
X138000000Y-49750000D02*
X138000000Y-54000000D01*
%TO.N,Net-(R11-Pad2)*%
X139340000Y-38500000D02*
X139340000Y-41500000D01*
%TO.N,Net-(R14-Pad2)*%
X75000000Y-37000000D02*
X75000000Y-39920000D01*
X75000000Y-43750000D02*
X71250000Y-47500000D01*
X75000000Y-39920000D02*
X75000000Y-43750000D01*
%TO.N,AuxIO*%
X153500000Y-60788115D02*
X146288115Y-67999999D01*
X146288115Y-68000000D02*
X141500000Y-68000000D01*
X111250000Y-68750000D02*
X89250000Y-68750000D01*
X117625000Y-67875000D02*
X116000000Y-69500000D01*
X80250000Y-64566616D02*
X80250000Y-49750000D01*
X153500000Y-58500000D02*
X153500000Y-60788115D01*
X112000000Y-69500000D02*
X111250000Y-68750000D01*
X82933384Y-67250000D02*
X80250000Y-64566616D01*
X136474000Y-65474000D02*
X120026000Y-65474000D01*
X78000000Y-41500000D02*
X80250000Y-43750000D01*
X116000000Y-69500000D02*
X113000000Y-69500000D01*
X146288115Y-67999999D02*
X146288115Y-68000000D01*
X120026000Y-65474000D02*
X118750000Y-66750000D01*
X87750000Y-68750000D02*
X85219616Y-68750000D01*
X85219616Y-68750000D02*
X83719616Y-67250000D01*
X139000000Y-68000000D02*
X136474000Y-65474000D01*
X83719616Y-67250000D02*
X82933384Y-67250000D01*
X113000000Y-69500000D02*
X112000000Y-69500000D01*
X80250000Y-43750000D02*
X80250000Y-47500000D01*
%TD*%
M02*
